<?xml version="1.0" encoding="UTF-8"?>
<!DOCTYPE svg PUBLIC "-//W3C//DTD SVG 1.1//EN" "http://www.w3.org/Graphics/SVG/1.1/DTD/svg11.dtd">
<!-- Creator: CorelDRAW X6 -->
<svg xmlns="http://www.w3.org/2000/svg" xml:space="preserve" width="15.24mm" height="15.24mm" version="1.1" style="shape-rendering:geometricPrecision; text-rendering:geometricPrecision; image-rendering:optimizeQuality; fill-rule:evenodd; clip-rule:evenodd"
viewBox="0 0 1524 1524"
 xmlns:xlink="http://www.w3.org/1999/xlink"
 enable-background="new 0 0 64 64">
 <defs>
 <linearGradient id="Gradient1" x1="0" y1="1" x2="0" y2="0">
      <stop class="stop1" offset="0%"/>
      <stop class="stop2" offset="99%"/>
      <stop class="stop3" offset="100%"/>
    </linearGradient>
  <style type="text/css">
   <!-- <![CDATA[
    .fil0 {fill:black}
   ]]> -->
   .cls-2 {
        fill: url(#Gradient1);
        <!-- fill: #6055c4;-->
        fill-rule: evenodd;
        <!-- filter: url(#filter); -->
      }
      .stop1 {
        stop-color: #f26522;
      }
      .stop2 {
        stop-color: #fa0891;
      }
      .stop3 {
        stop-color: #fa0891;
      }
  </style>
 </defs>
 <g id="Слой_x0020_1">
  <metadata id="CorelCorpID_0Corel-Layer"/>
  <g id="_178001088">
   <g id="_1-Call">
   </g>
   <g id="_2-24_Hours_Call">
   </g>
   <g id="_3-Sending_Call">
   </g>
   <g id="_4-Incoming_Call">
   </g>
   <g id="_5-Talk_On_Phone">
   </g>
   <g id="_6-Block_Call">
   </g>
   <g id="_7-Hold_Call">
   </g>
   <g id="_8-Mute_Call">
   </g>
   <g id="_9-Phone_Book">
   </g>
   <g id="_10-Add_Contact">
   </g>
   <g id="_11-Delete_Contact">
   </g>
   <g id="_12-Mail">
   </g>
   <g id="_13-Message_Read">
   </g>
   <g id="_14-Email">
   </g>
   <g id="_15-Send_Mail">
   </g>
   <g id="_16-Important_Mail">
   </g>
   <g id="_17-Mail_Chain">
   </g>
   <g id="_18-Messaging">
   </g>
   <g id="_19-Sending">
   </g>
   <g id="_20-Chat">
   </g>
   <g id="_21-Mail_Attachment">
   </g>
   <g id="_22-Mobile_Link">
   </g>
   <g id="_23-Smartphone">
   </g>
   <g id="_24-Social_Media">
   </g>
   <g id="_25-Support">
   </g>
   <g id="_26-Links">
   </g>
   <g id="_27-Phone">
    <path class="cls-2" d="M1435 1127l-216 -151c-28,-20 -61,-30 -96,-30 -55,0 -106,27 -137,72l-50 72c-84,-57 -178,-135 -268,-225 -90,-90 -168,-184 -225,-268l72 -50c37,-26 61,-64 69,-108 8,-44 -2,-88 -28,-125l-151 -216c-32,-45 -83,-72 -137,-72 -19,0 -37,3 -54,10 -20,7 -38,16 -56,28l-30 21c-7,6 -14,12 -21,19 -36,36 -62,83 -77,137 -62,234 92,587 384,879 245,245 540,398 769,398l0 0c39,0 76,-5 110,-14 55,-15 101,-40 137,-77 7,-7 13,-14 20,-22l21 -30c10,-16 19,-35 27,-55 25,-69 0,-147 -63,-191z"/>
   </g>
   <g id="_28-Phone-2">
   </g>
   <g id="_29-Map">
   </g>
   <g id="_30-Location">
   </g>
   <g id="_31-Write">
   </g>
   <g id="_32-World">
   </g>
   <g id="_33-Home">
   </g>
   <g id="_34-Calendar">
   </g>
   <g id="_35-Website">
   </g>
   <g id="_36-Info">
   </g>
   <g id="_37-Bull_Horn">
   </g>
   <g id="_38-Profile">
   </g>
   <g id="_39-Quote__x0026__Answer">
   </g>
   <g id="_40-Notification">
   </g>
   <g id="_41-Share">
   </g>
   <g id="_42-Time">
   </g>
  </g>
 </g>
</svg>
