<?xml version="1.0" standalone="no"?>
<!DOCTYPE svg PUBLIC "-//W3C//DTD SVG 20010904//EN"
 "http://www.w3.org/TR/2001/REC-SVG-20010904/DTD/svg10.dtd">
<svg version="1.0" xmlns="http://www.w3.org/2000/svg"
 width="200.000000pt" height="200.000000pt" viewBox="0 0 200.000000 200.000000"
 preserveAspectRatio="xMidYMid meet">
<metadata>
Created by potrace 1.11, written by Peter Selinger 2001-2013
</metadata>
<g transform="translate(0.000000,200.000000) scale(0.100000,-0.100000)"
fill="#000000" stroke="none">
<path d="M0 1000 l0 -1000 1000 0 1000 0 0 498 0 499 -497 0 -498 0 -3 501 -2
502 -500 0 -500 0 0 -1000z"/>
<path d="M1086 1991 c-3 -7 -1 -38 8 -129 14 -144 18 -189 21 -227 8 -105 16
-205 20 -236 2 -19 6 -72 10 -119 3 -47 8 -92 11 -101 4 -14 146 -60 303 -96
27 -7 68 1 190 35 86 25 159 47 162 51 4 3 10 49 14 101 3 52 8 111 10 130 2
19 6 70 10 112 12 145 18 215 31 348 3 36 7 81 8 100 l1 35 -398 1 c-219 1
-399 -2 -401 -5z"/>
</g>
</svg>
